<svg class="svg-icon svg-icon--author-back" xmlns="http://www.w3.org/2000/svg" viewBox="0 0 464.77 466.81" fill="#fd8c42">
    <g>
        <path d="M261,438.47a14.8,14.8,0,0,1,8,2.93,14.77,14.77,0,1,1-16.33-.94A14.75,14.75,0,0,1,261,438.47Z" transform="translate(-0.21 -0.88)"></path>
        <path d="M298.27,434a14.42,14.42,0,0,1,4.31,3.61,14.27,14.27,0,0,1,3.05,10.54A14.45,14.45,0,0,1,282,457.45a14.26,14.26,0,0,1-4.42-15.28,14.39,14.39,0,0,1,12.52-9.92A14.51,14.51,0,0,1,298.27,434Z" transform="translate(-0.21 -0.88)"></path>
        <path d="M228.9,454a1.58,1.58,0,0,1,.48.29,1.51,1.51,0,0,1,.35.44,1.43,1.43,0,0,1,.13.54,1.35,1.35,0,0,1-.09.56,1.32,1.32,0,0,1-.32.46,1.43,1.43,0,0,1-2,.13,1.46,1.46,0,0,1-.46-1,1.45,1.45,0,0,1,.34-1,1.48,1.48,0,0,1,.44-.34,1.44,1.44,0,0,1,.54-.14A1.51,1.51,0,0,1,228.9,454Z" transform="translate(-0.21 -0.88)"></path>
        <path d="M197.43,451.33l.17,0a1.67,1.67,0,0,1,1.13.67,1.71,1.71,0,0,1-2.76,2,1.77,1.77,0,0,1-.3-1.26,1.74,1.74,0,0,1,.66-1.12,1.68,1.68,0,0,1,.93-.34Z" transform="translate(-0.21 -0.88)"></path>
        <path d="M325.6,422.89a14.21,14.21,0,0,1,4.64,2.91,13.95,13.95,0,0,1,4.38,9.78,14.13,14.13,0,0,1-27,6.08,14,14,0,0,1,9.82-19.37A14.19,14.19,0,0,1,325.6,422.89Z" transform="translate(-0.21 -0.88)"></path>
        <path d="M167.91,444.86a2,2,0,0,1,1.19.92,1.93,1.93,0,0,1,.21,1.51,2.09,2.09,0,0,1-.35.7,2.22,2.22,0,0,1-.6.5,2,2,0,0,1-.74.24,2,2,0,0,1-.77-.06,2,2,0,0,1-.69-.35,1.93,1.93,0,0,1-.51-.59,1.85,1.85,0,0,1-.24-.73,1.82,1.82,0,0,1,.07-.77,2,2,0,0,1,.94-1.19A2,2,0,0,1,167.91,444.86Z" transform="translate(-0.21 -0.88)"></path>
        <path d="M139.08,434.23a2.26,2.26,0,0,1,.89.19,2.2,2.2,0,0,1,.75.52,2.3,2.3,0,0,1,.49.77,2.34,2.34,0,0,1-.22,1.6,2.33,2.33,0,0,1-2.85,1.08,2.33,2.33,0,0,1-1.24-1.05,2.22,2.22,0,0,1-.16-.88,2.14,2.14,0,0,1,.18-.86,2.23,2.23,0,0,1,.51-.73,2.18,2.18,0,0,1,.76-.48A2.1,2.1,0,0,1,139.08,434.23Z" transform="translate(-0.21 -0.88)"></path>
        <path d="M350.68,408.38a13.67,13.67,0,0,1,6.3,23.36,13.91,13.91,0,0,1-15.14,2.49,13.7,13.7,0,0,1,.84-25.33A13.91,13.91,0,0,1,350.68,408.38Z" transform="translate(-0.21 -0.88)"></path>
        <path d="M219.73,408.16a11.85,11.85,0,0,1,10.41,8.06,11.71,11.71,0,0,1,.17,6.86A12,12,0,0,1,218,431.73a12.07,12.07,0,0,1-4.47-1.23,11.79,11.79,0,0,1-.52-20.83A11.92,11.92,0,0,1,219.73,408.16Z" transform="translate(-0.21 -0.88)"></path>
        <path d="M246.43,408.64a11.7,11.7,0,0,1,6.14,2.79,11.5,11.5,0,0,1,1,16.3,11.68,11.68,0,0,1-18-.62,11.54,11.54,0,0,1,4.14-17.39A11.72,11.72,0,0,1,246.43,408.64Z" transform="translate(-0.21 -0.88)"></path>
        <path d="M197.62,405.21a12.1,12.1,0,0,1,5.39,4.51,12,12,0,0,1,1.72,9.07,11.81,11.81,0,0,1-1.88,4.33,11.94,11.94,0,0,1-3.4,3.28,12.17,12.17,0,0,1-13.49-.16,12.14,12.14,0,0,1-4.4-5.46,12,12,0,0,1,2.8-13.11,12.24,12.24,0,0,1,13.26-2.46Z" transform="translate(-0.21 -0.88)"></path>
        <path d="M274.88,406.31A11.25,11.25,0,0,1,280,423.05a11.51,11.51,0,0,1-15.76,3.1,11.25,11.25,0,0,1-1.72-17.39,11.43,11.43,0,0,1,12.41-2.45Z" transform="translate(-0.21 -0.88)"></path>
        <path d="M113.71,420.69a2.56,2.56,0,0,1,1.21,1.42,2.58,2.58,0,0,1-1.83,3.13,2.64,2.64,0,0,1-2-.31,2.56,2.56,0,0,1-1.18-1.6,2.56,2.56,0,0,1,1.93-2.88A2.58,2.58,0,0,1,113.71,420.69Z" transform="translate(-0.21 -0.88)"></path>
        <path d="M171.5,397.38a12.28,12.28,0,0,1,1.05,22.71,12.45,12.45,0,0,1-13.62-2,12.26,12.26,0,0,1-.79-17.39,12.46,12.46,0,0,1,13.36-3.28Z" transform="translate(-0.21 -0.88)"></path>
        <path d="M298.21,399.52a11.17,11.17,0,0,1,5.46,3.34A10.93,10.93,0,0,1,305.34,415a11.1,11.1,0,0,1-19.56.71,11,11,0,0,1,6-15.91A11.23,11.23,0,0,1,298.21,399.52Z" transform="translate(-0.21 -0.88)"></path>
        <path d="M373.39,390.84a13.37,13.37,0,0,1,9.18,21.83,13.55,13.55,0,0,1-20.86.07,13.35,13.35,0,0,1-1.52-14.82,13.52,13.52,0,0,1,13.2-7.08Z" transform="translate(-0.21 -0.88)"></path>
        <path d="M320.59,389.52a10.8,10.8,0,1,1-10,17.33,10.77,10.77,0,0,1-.83-12,10.87,10.87,0,0,1,10.82-5.35Z" transform="translate(-0.21 -0.88)"></path>
        <path d="M143.41,385.33a12.71,12.71,0,0,1,6.78,2.81,12.41,12.41,0,0,1,3.05,15.6,12.65,12.65,0,0,1-20.88,2.06A12.51,12.51,0,0,1,131,391.9a12.72,12.72,0,0,1,12.41-6.57Z" transform="translate(-0.21 -0.88)"></path>
        <path d="M88.74,402.93a3.13,3.13,0,0,1,1,.52,2.82,2.82,0,0,1,.73.88,3.07,3.07,0,0,1,.3.85l0,.23v.2a2.87,2.87,0,0,1-.71,2.07,2.89,2.89,0,0,1-4.07.26,2.85,2.85,0,0,1-1-2,2.78,2.78,0,0,1,.09-1.11,2.65,2.65,0,0,1,.52-1,2.71,2.71,0,0,1,.86-.72,3,3,0,0,1,1.07-.32A3.08,3.08,0,0,1,88.74,402.93Z" transform="translate(-0.21 -0.88)"></path>
        <path d="M226.54,383.35h.37a9.38,9.38,0,0,1,5.06,1.78,9.16,9.16,0,0,1,.74,14.2,9.35,9.35,0,0,1-13.06-.58,9.16,9.16,0,0,1,2-14.08,9.31,9.31,0,0,1,4.48-1.32Z" transform="translate(-0.21 -0.88)"></path>
        <path d="M253.5,384.2a8.91,8.91,0,0,1,2.62,13.57,9.14,9.14,0,0,1-2.74,2.2,9,9,0,0,1-6.87.62,9.09,9.09,0,0,1-3.09-1.67,8.91,8.91,0,0,1,.13-13.82,9,9,0,0,1,9.95-.9Z" transform="translate(-0.21 -0.88)"></path>
        <path d="M205.79,381a9.39,9.39,0,0,1,.28,18.42,9.55,9.55,0,0,1-3.69.06,9.33,9.33,0,0,1-3.44-1.36,9.47,9.47,0,0,1-2.65-2.55,9.36,9.36,0,0,1-.14-10.44,9.41,9.41,0,0,1,4.19-3.52A9.51,9.51,0,0,1,205.79,381Z" transform="translate(-0.21 -0.88)"></path>
        <path d="M341.49,376.44a10.59,10.59,0,0,1,9.85,6.44,10.56,10.56,0,0,1-3.81,12.86,10.73,10.73,0,0,1-13.44-1.24,10.51,10.51,0,0,1,1.52-16.24A10.68,10.68,0,0,1,341.49,376.44Z" transform="translate(-0.21 -0.88)"></path>
        <path d="M276.5,381a8.7,8.7,0,0,1,3.93,5.42,8.65,8.65,0,0,1-1.1,6.58,8.84,8.84,0,0,1-13.49,1.82,8.68,8.68,0,0,1-2.24-9.46A8.85,8.85,0,0,1,276.5,381Z" transform="translate(-0.21 -0.88)"></path>
        <path d="M400.89,372.48a13.31,13.31,0,1,1-7.45-1.93A13.35,13.35,0,0,1,400.89,372.48Z" transform="translate(-0.21 -0.88)"></path>
        <path d="M185.29,375.51a9.73,9.73,0,0,1,3.3,1.83,9.57,9.57,0,0,1-1.9,15.86,9.75,9.75,0,0,1-7.38.59,9.65,9.65,0,0,1-5.62-4.77,9.54,9.54,0,0,1-1-3.61,9.39,9.39,0,0,1,.45-3.72,9.59,9.59,0,0,1,4.8-5.6,9.86,9.86,0,0,1,3.64-1A9.67,9.67,0,0,1,185.29,375.51Z" transform="translate(-0.21 -0.88)"></path>
        <path d="M297.38,374.48a8.54,8.54,0,0,1-3.47,16.35,8.57,8.57,0,0,1-8.18-5.88,8.48,8.48,0,0,1,.72-6.91,8.52,8.52,0,0,1,4.78-3.86A8.64,8.64,0,0,1,297.38,374.48Z" transform="translate(-0.21 -0.88)"></path>
        <path d="M67.15,382.45a3.2,3.2,0,0,1,1.39,1.21,3.11,3.11,0,0,1,.49,1.78,3.15,3.15,0,0,1-1,2.2,3.2,3.2,0,0,1-4,.3,3.07,3.07,0,0,1-1.14-1.45,3.12,3.12,0,0,1-.14-1.84,3.15,3.15,0,0,1,2.57-2.42A3.23,3.23,0,0,1,67.15,382.45Z" transform="translate(-0.21 -0.88)"></path>
        <path d="M165.91,367a10,10,0,0,1-1.15,18.61,9.74,9.74,0,0,1-3.82.59,10,10,0,0,1-3.76-.93,9.84,9.84,0,0,1-5.06-5.61,10,10,0,0,1-.39-5.87A10.14,10.14,0,0,1,165.91,367Z" transform="translate(-0.21 -0.88)"></path>
        <path d="M119.77,382.6a1.19,1.19,0,0,1,.41.82,1.23,1.23,0,0,1-.3.88,1.2,1.2,0,0,1-.83.4,1.17,1.17,0,0,1-.88-.3,1.21,1.21,0,0,1-.41-.82,1.23,1.23,0,0,1,.3-.88,1.2,1.2,0,0,1,.83-.4A1.17,1.17,0,0,1,119.77,382.6Z" transform="translate(-0.21 -0.88)"></path>
        <path d="M366.63,362.37A10.15,10.15,0,0,1,371,366.2,10,10,0,0,1,369.15,379a10.12,10.12,0,0,1-16.34-4.22,10,10,0,0,1,2.81-10.7,10.14,10.14,0,0,1,11-1.67Z" transform="translate(-0.21 -0.88)"></path>
        <path d="M316.89,363a8.32,8.32,0,0,1,7.25,5.73,8.13,8.13,0,0,1,.07,4.81,8.24,8.24,0,0,1-1.49,2.88,8.37,8.37,0,0,1-2.49,2.09,8.27,8.27,0,0,1-3.1,1,8.11,8.11,0,0,1-3.25-.27,8.29,8.29,0,0,1,3-16.22Z" transform="translate(-0.21 -0.88)"></path>
        <path d="M143.76,355.58a10.05,10.05,0,1,1-10.28,15.51,10,10,0,0,1-.08-11.16,10.19,10.19,0,0,1,10.36-4.35Z" transform="translate(-0.21 -0.88)"></path>
        <path d="M234.14,361.59a7,7,0,0,1,3.56,1.9,7,7,0,0,1,2.05,5.09,6.81,6.81,0,0,1-.63,2.73,7,7,0,0,1-1.65,2.27,7,7,0,0,1-7.65,1.21,7,7,0,0,1-3-2.64,7,7,0,0,1,.18-7.69,7,7,0,0,1,3.16-2.51A7.11,7.11,0,0,1,234.14,361.59Z" transform="translate(-0.21 -0.88)"></path>
        <path d="M255.63,361.35a6.8,6.8,0,0,1,3.69,6.57,6.86,6.86,0,0,1-1.45,3.67,6.91,6.91,0,0,1-9.61,1.1,6.78,6.78,0,0,1,3.47-12A6.83,6.83,0,0,1,255.63,361.35Z" transform="translate(-0.21 -0.88)"></path>
        <path d="M213.39,359.47a7.2,7.2,0,0,1,5.88,5.38,7.17,7.17,0,0,1-2.7,7.47,7.22,7.22,0,0,1-2.6,1.22,7.23,7.23,0,0,1-7.64-2.84,7.11,7.11,0,0,1-1.31-3.93,7.19,7.19,0,0,1,1.09-4,7.28,7.28,0,0,1,7.28-3.29Z" transform="translate(-0.21 -0.88)"></path>
        <path d="M420.26,350a12.85,12.85,0,0,1,5.3,8.29,12.81,12.81,0,0,1-5.82,13,12.92,12.92,0,0,1-18.92-6.19,12.74,12.74,0,0,1,3.12-13.88A12.94,12.94,0,0,1,420.26,350Z" transform="translate(-0.21 -0.88)"></path>
        <path d="M272.7,357.24a6.62,6.62,0,0,1,5.51,4.84,6.63,6.63,0,0,1-9.74,7.38,6.72,6.72,0,0,1-1.94-1.7,6.47,6.47,0,0,1-1.13-2.31,6.37,6.37,0,0,1-.16-2.57,6.58,6.58,0,0,1,.84-2.43,6.66,6.66,0,0,1,6.62-3.21Z" transform="translate(-0.21 -0.88)"></path>
        <path d="M193,354.46a7.33,7.33,0,0,1-.14,14.59,7.4,7.4,0,0,1-7.2-3.89,7.31,7.31,0,0,1-.5-5.6,7.35,7.35,0,0,1,1.38-2.51,7.4,7.4,0,0,1,6.46-2.59Z" transform="translate(-0.21 -0.88)"></path>
        <path d="M98.49,364.86a1.51,1.51,0,0,1,1.06.43,1.48,1.48,0,0,1,.45,1,1.57,1.57,0,0,1-.39,1,1.13,1.13,0,0,1-1.85.05,1.47,1.47,0,0,1-.41-.94,1.45,1.45,0,0,1,.29-1A1.51,1.51,0,0,1,98.49,364.86Z" transform="translate(-0.21 -0.88)"></path>
        <path d="M340,351.49a8,8,0,0,1,4,8.09,8.09,8.09,0,0,1-3.12,5.34A8.12,8.12,0,1,1,330.91,352a8.23,8.23,0,0,1,4.44-1.64A8.13,8.13,0,0,1,340,351.49Z" transform="translate(-0.21 -0.88)"></path>
        <path d="M290.41,351.27a6.5,6.5,0,0,1,3.6,1.11,6.41,6.41,0,0,1,2.7,6.63,6.49,6.49,0,0,1-8.89,4.6,6.4,6.4,0,0,1-2.09-1.4,6.5,6.5,0,0,1-1.38-2.09,6.25,6.25,0,0,1-.47-2.45,6.49,6.49,0,0,1,6.53-6.4Z" transform="translate(-0.21 -0.88)"></path>
        <path d="M127.08,342.59a10,10,0,0,1,7,8.6,10.25,10.25,0,0,1-2.45,7.43,10.38,10.38,0,0,1-7,3.58,10.13,10.13,0,0,1-9.67-5.53,9.94,9.94,0,0,1-1-5.7,10,10,0,0,1,2.34-5.31,10.15,10.15,0,0,1,10.73-3.07Z" transform="translate(-0.21 -0.88)"></path>
        <path d="M383.85,342.42a10.14,10.14,0,0,1,4.76,3.41,10,10,0,0,1-.46,12.74,10.06,10.06,0,1,1-4.3-16.15Z" transform="translate(-0.21 -0.88)"></path>
        <path d="M174.91,347a7.56,7.56,0,0,1,5.75,6.14,7.46,7.46,0,0,1-.6,4.34,7.57,7.57,0,1,1-13.77-6.27,7.59,7.59,0,0,1,8.62-4.21Z" transform="translate(-0.21 -0.88)"></path>
        <path d="M309.59,343.21a6.28,6.28,0,0,1,3.77,2.92,6.2,6.2,0,0,1,.61,4.71,6.28,6.28,0,0,1-11.5,1.47,6.18,6.18,0,0,1,.5-6.91,6.25,6.25,0,0,1,3-2.09A6.39,6.39,0,0,1,309.59,343.21Z" transform="translate(-0.21 -0.88)"></path>
        <path d="M157.35,337.11a7.87,7.87,0,0,1,4,2.09,7.68,7.68,0,0,1,1,9.75,7.77,7.77,0,0,1-9.42,2.93,7.74,7.74,0,0,1-3.51-2.83,7.7,7.7,0,0,1-.06-8.59,7.83,7.83,0,0,1,3.48-2.88A8,8,0,0,1,157.35,337.11Z" transform="translate(-0.21 -0.88)"></path>
        <path d="M353.19,335.54a7.88,7.88,0,0,1,5.6,2.26,7.88,7.88,0,0,1,2.34,5.54,7.87,7.87,0,0,1-4.84,7.26,7.92,7.92,0,0,1-8.6-1.65,7.79,7.79,0,0,1-2.18-4,7.87,7.87,0,0,1,7.68-9.41Z" transform="translate(-0.21 -0.88)"></path>
        <path d="M81,345.2h.17a1.75,1.75,0,0,1,1.16.65,1.72,1.72,0,0,1,.38,1.27,1.74,1.74,0,0,1-.21.63,1.66,1.66,0,0,1-.44.51,1.74,1.74,0,0,1-.61.3,1.9,1.9,0,0,1-.67,0,1.8,1.8,0,0,1-.65-.18,1.62,1.62,0,0,1-.84-1.69,1.71,1.71,0,0,1,.63-1.15,1.64,1.64,0,0,1,.91-.38Z" transform="translate(-0.21 -0.88)"></path>
        <path d="M432,323.15a12.67,12.67,0,0,1,6.16,4,12.52,12.52,0,0,1-3.7,19.1,12.69,12.69,0,0,1-14-1.32,12.54,12.54,0,0,1,4.2-21.7A12.69,12.69,0,0,1,432,323.15Z" transform="translate(-0.21 -0.88)"></path>
        <path d="M110.58,325.78a10.56,10.56,0,0,1,5.21,3.23,10.46,10.46,0,0,1-2.7,16,10.55,10.55,0,0,1-13.2-2.2A10.46,10.46,0,0,1,104.45,326,10.58,10.58,0,0,1,110.58,325.78Z" transform="translate(-0.21 -0.88)"></path>
        <path d="M324.73,332.6a6,6,0,0,1,4.93,7.92,6.12,6.12,0,0,1-2.06,2.85,6.11,6.11,0,0,1-6.74.41,6,6,0,0,1-2.4-2.57,6,6,0,0,1,1.79-7.43A6.08,6.08,0,0,1,324.73,332.6Z" transform="translate(-0.21 -0.88)"></path>
        <path d="M142.75,325.41a7.91,7.91,0,0,1,4.39,11.47,8,8,0,0,1-12.18,2,7.91,7.91,0,0,1,.37-12.26,8,8,0,0,1,7.42-1.25Z" transform="translate(-0.21 -0.88)"></path>
        <path d="M401.75,322.1a9.77,9.77,0,0,1,4,11.76,9.88,9.88,0,0,1-18.22.59,9.74,9.74,0,0,1,1.81-10.75,9.92,9.92,0,0,1,12.4-1.6Z" transform="translate(-0.21 -0.88)"></path>
        <path d="M370.07,318.92a7.76,7.76,0,0,1,3.81,2.31,7.69,7.69,0,1,1-11.88.48,7.72,7.72,0,0,1,8.07-2.79Z" transform="translate(-0.21 -0.88)"></path>
        <path d="M338.58,320a5.84,5.84,0,0,1,3.24,1,5.8,5.8,0,0,1,.85,8.95,5.86,5.86,0,0,1-10-4.09,5.76,5.76,0,0,1,.45-2.25,5.63,5.63,0,0,1,1.28-1.91,5.74,5.74,0,0,1,1.92-1.27A5.87,5.87,0,0,1,338.58,320Z" transform="translate(-0.21 -0.88)"></path>
        <path d="M93.6,306.74a10.83,10.83,0,0,1,6,1.88,10.75,10.75,0,0,1-.19,17.89A10.91,10.91,0,0,1,85.74,325a10.72,10.72,0,0,1,1.82-16.53A11,11,0,0,1,93.6,306.74Z" transform="translate(-0.21 -0.88)"></path>
        <path d="M66.48,323.59a2,2,0,0,1,1.08.39,2,2,0,0,1,.72,2.06,2,2,0,0,1-.32.7,1.85,1.85,0,0,1-.57.51,1.92,1.92,0,0,1-.73.25,1.82,1.82,0,0,1-.77-.05,2,2,0,0,1-1-.59,2,2,0,0,1-.49-1,2.09,2.09,0,0,1,.17-1.13,2,2,0,0,1,.78-.84A2,2,0,0,1,66.48,323.59Z" transform="translate(-0.21 -0.88)"></path>
        <path d="M126.61,311.16h.32a8.2,8.2,0,0,1,5.62,2.75,8.09,8.09,0,0,1,2,5.88,8,8,0,0,1-1.68,4.38,8.06,8.06,0,0,1-3.84,2.73,8.21,8.21,0,0,1-4.71.15,8.13,8.13,0,0,1-4-2.47,8,8,0,0,1-2-4.26,8.14,8.14,0,0,1,7.91-9.17Z" transform="translate(-0.21 -0.88)"></path>
        <path d="M442.29,295.56a12.4,12.4,0,0,1,6.48,3.05,12.22,12.22,0,0,1-1,18.94,12.4,12.4,0,0,1-13.71.62,12.23,12.23,0,0,1,1.13-21.57A12.37,12.37,0,0,1,442.29,295.56Z" transform="translate(-0.21 -0.88)"></path>
        <path d="M352.83,305.67a5.68,5.68,0,1,1-3.74,10.69,5.68,5.68,0,0,1,3.74-10.69Z" transform="translate(-0.21 -0.88)"></path>
        <path d="M411.65,297.15a9.66,9.66,0,0,1,4.86,2.74,9.49,9.49,0,0,1,1.82,10.46,9.62,9.62,0,0,1-17.76-.5,9.27,9.27,0,0,1-.63-3.65,9.42,9.42,0,0,1,.82-3.62,9.71,9.71,0,0,1,10.89-5.43Z" transform="translate(-0.21 -0.88)"></path>
        <path d="M381.35,300.22A7.37,7.37,0,0,1,387,311.17a7.29,7.29,0,0,1-1.9,2.2,7.48,7.48,0,0,1-10.45-1.25A7.37,7.37,0,0,1,374,304a7.42,7.42,0,0,1,3.11-3A7.52,7.52,0,0,1,381.35,300.22Z" transform="translate(-0.21 -0.88)"></path>
        <path d="M114.62,295.55a8.37,8.37,0,0,1,7.77,5.19,8.31,8.31,0,0,1,.44,4.85,8.4,8.4,0,0,1-16.43,0,8.3,8.3,0,0,1,.44-4.85,8.4,8.4,0,0,1,3.09-3.78A8.5,8.5,0,0,1,114.62,295.55Z" transform="translate(-0.21 -0.88)"></path>
        <path d="M87.45,287.52a10.84,10.84,0,0,1,2.49,16.65,10.9,10.9,0,1,1-2.49-16.65Z" transform="translate(-0.21 -0.88)"></path>
        <path d="M362.91,289.42a5.43,5.43,0,0,1,4.84,6,5.27,5.27,0,0,1-.66,2,5.4,5.4,0,0,1-3.32,2.61,5.57,5.57,0,0,1-3.16-.07,5.43,5.43,0,0,1,2.3-10.55Z" transform="translate(-0.21 -0.88)"></path>
        <path d="M109.32,279.9a8.49,8.49,0,0,1-2.14,15.55,8.64,8.64,0,0,1-5-.19,8.55,8.55,0,0,1-4.9-4.3,8.52,8.52,0,0,1,7.17-12.2A8.58,8.58,0,0,1,109.32,279.9Z" transform="translate(-0.21 -0.88)"></path>
        <path d="M390.07,280.23a7.26,7.26,0,0,1,6.73,4.34,7.41,7.41,0,0,1,.59,2.75,7.18,7.18,0,0,1-2.07,5.12A7.33,7.33,0,0,1,393,294a7.17,7.17,0,0,1-4.17.45,7.25,7.25,0,0,1-3.72-1.92,7.17,7.17,0,0,1-1.65-7.8,7.25,7.25,0,0,1,6.63-4.52Z" transform="translate(-0.21 -0.88)"></path>
        <path d="M449.07,266.67a11.92,11.92,0,1,1-12,14.15,11.79,11.79,0,0,1,.06-4.66,11.64,11.64,0,0,1,1.85-4.29,12.18,12.18,0,0,1,10.08-5.2Z" transform="translate(-0.21 -0.88)"></path>
        <path d="M419.58,272a9.35,9.35,0,0,1,5.05,2,9.26,9.26,0,0,1,3.16,9.84,9.4,9.4,0,0,1-13.3,5.68,9.27,9.27,0,0,1-.22-16.38A9.44,9.44,0,0,1,419.58,272Z" transform="translate(-0.21 -0.88)"></path>
        <path d="M371.66,271.68a5,5,0,0,1,3.87,3.91,5.05,5.05,0,0,1-4.76,6,5.16,5.16,0,0,1-2.79-.7,5,5,0,0,1-2.46-4.12A5,5,0,0,1,367,273a5.08,5.08,0,0,1,1.76-1.12A5,5,0,0,1,371.66,271.68Z" transform="translate(-0.21 -0.88)"></path>
        <path d="M100,261a8.69,8.69,0,0,1,6.35,7.3,8.62,8.62,0,0,1-.87,5,8.81,8.81,0,0,1-11.76,3.86A8.7,8.7,0,0,1,100,261Z" transform="translate(-0.21 -0.88)"></path>
        <path d="M73.22,273.68h.14a1.09,1.09,0,0,1,.4.12,1.18,1.18,0,0,1,.48.64,1.08,1.08,0,0,1-.09.79,1,1,0,0,1-.24.32,1,1,0,0,1-.76.24.89.89,0,0,1-.39-.12,1,1,0,0,1-.32-.26,1,1,0,0,1-.2-.36,1.12,1.12,0,0,1,0-.41,1,1,0,0,1,.12-.4,1,1,0,0,1,.63-.51l.13,0Z" transform="translate(-0.21 -0.88)"></path>
        <path d="M400.05,259.9a7.06,7.06,0,0,1,3,2.73,6.92,6.92,0,0,1-2.44,9.57,7.07,7.07,0,0,1-7.8-.39,7,7,0,0,1-.51-10.79,7.09,7.09,0,0,1,7.73-1.12Z" transform="translate(-0.21 -0.88)"></path>
        <path d="M427.36,247a9.07,9.07,0,0,1,4.25,3.12,9,9,0,0,1-1.84,12.64,9.14,9.14,0,0,1-10.1.55,9,9,0,0,1-2.12-13.82,9.17,9.17,0,0,1,9.81-2.49Z" transform="translate(-0.21 -0.88)"></path>
        <path d="M378.21,252.25a5.12,5.12,0,0,1,2.52,1.46,5,5,0,0,1,.91,5.48,5,5,0,0,1-1.91,2.2,5.45,5.45,0,0,1-1.87.71,5.08,5.08,0,0,1-3.83-.91,5.16,5.16,0,0,1-1.35-1.48,5,5,0,0,1,2.61-7.29A5.1,5.1,0,0,1,378.21,252.25Z" transform="translate(-0.21 -0.88)"></path>
        <path d="M458.52,237.93a11.64,11.64,0,0,1,4.93,4.65,11.6,11.6,0,0,1-.93,12.9,11.79,11.79,0,0,1-18.12.53,11.57,11.57,0,0,1-2.29-4,11.55,11.55,0,0,1,.64-8.93,11.79,11.79,0,0,1,9.07-6.34A11.85,11.85,0,0,1,458.52,237.93Z" transform="translate(-0.21 -0.88)"></path>
        <path d="M96.35,242.36a8.87,8.87,0,0,1,3.83,13.22,9.06,9.06,0,0,1-12.43,2.29,8.91,8.91,0,0,1-3.25-4,8.88,8.88,0,0,1,2.07-9.68,9,9,0,0,1,4.61-2.37A8.88,8.88,0,0,1,96.35,242.36Z" transform="translate(-0.21 -0.88)"></path>
        <path d="M68.68,251.31a1.26,1.26,0,0,1,.63,1.24,1.27,1.27,0,0,1-.29.66,1.32,1.32,0,0,1-1.82.11,1.23,1.23,0,0,1-.37-.62,1.23,1.23,0,0,1,.46-1.3,1.33,1.33,0,0,1,.69-.26A1.24,1.24,0,0,1,68.68,251.31Z" transform="translate(-0.21 -0.88)"></path>
        <path d="M404.37,238.27a6.84,6.84,0,0,1,2.77,2.82,6.73,6.73,0,0,1,.72,3.87,6.8,6.8,0,0,1-1.57,3.62,6.85,6.85,0,0,1-10.55-.13,6.75,6.75,0,0,1,1.07-9.53,6.84,6.84,0,0,1,7.56-.65Z" transform="translate(-0.21 -0.88)"></path>
        <path d="M381.75,232.13a5.08,5.08,0,0,1,2.43,1.69,5,5,0,0,1-3.4,8.08,5.05,5.05,0,0,1-5-2.58,5,5,0,0,1,3-7.23A5.18,5.18,0,0,1,381.75,232.13Z" transform="translate(-0.21 -0.88)"></path>
        <path d="M95,223.35a9.11,9.11,0,0,1,3.6,3.83,9.08,9.08,0,0,1-4.16,12.12,9.11,9.11,0,0,1-12.82-5.82,9.08,9.08,0,0,1,8.24-11.33A9.16,9.16,0,0,1,95,223.35Z" transform="translate(-0.21 -0.88)"></path>
        <path d="M428,221a8.91,8.91,0,0,1,4.51,2.45,8.75,8.75,0,0,1-.08,12.39,8.89,8.89,0,0,1-9.66,1.88,8.75,8.75,0,0,1-3.9-13,8.9,8.9,0,0,1,4-3.22A9,9,0,0,1,428,221Z" transform="translate(-0.21 -0.88)"></path>
        <path d="M65.82,228.21a1.54,1.54,0,0,1,1.09.37l.06.1a1.46,1.46,0,0,1,0,2.08,1.5,1.5,0,0,1-2.1.06,1.6,1.6,0,0,1-.36-.46,1.43,1.43,0,0,1-.16-.57,1.66,1.66,0,0,1,.08-.58,1.55,1.55,0,0,1,.31-.5A1.58,1.58,0,0,1,65.82,228.21Z" transform="translate(-0.21 -0.88)"></path>
        <path d="M457.1,206.45a11.33,11.33,0,0,1,1.32,20.93,11.49,11.49,0,0,1-12.58-1.67,11.22,11.22,0,0,1-2.71-3.52A11.45,11.45,0,0,1,442,217.9a11.34,11.34,0,0,1,2.85-8.23,11.47,11.47,0,0,1,12.27-3.22Z" transform="translate(-0.21 -0.88)"></path>
        <path d="M404.45,215.66a6.51,6.51,0,0,1,.29,12.05,6.57,6.57,0,0,1-7.19-1.22,6.58,6.58,0,0,1-2.05-4.58,6.52,6.52,0,0,1,.44-2.51,6.55,6.55,0,0,1,4.7-4A6.52,6.52,0,0,1,404.45,215.66Z" transform="translate(-0.21 -0.88)"></path>
        <path d="M382.55,212.46a4.81,4.81,0,0,1,1.61.93,4.69,4.69,0,0,1,1.35,5,4.85,4.85,0,0,1-.93,1.58,5.08,5.08,0,0,1-1.48,1.12,4.85,4.85,0,0,1-1.79.47,4.59,4.59,0,0,1-1.84-.25,4.78,4.78,0,0,1-1.61-.92,5,5,0,0,1-1.12-1.45,4.8,4.8,0,0,1-.47-1.77,4.52,4.52,0,0,1,.25-1.82,4.68,4.68,0,0,1,.93-1.58,4.75,4.75,0,0,1,1.47-1.12,4.85,4.85,0,0,1,1.79-.47A4.77,4.77,0,0,1,382.55,212.46Z" transform="translate(-0.21 -0.88)"></path>
        <path d="M93.68,202.14a9.34,9.34,0,0,1,4.54,3,9.19,9.19,0,0,1,1.09,10.25,9.29,9.29,0,0,1-2.3,2.81,9.4,9.4,0,0,1-14.22-2.68,9.28,9.28,0,0,1,5.46-13.32A9.39,9.39,0,0,1,93.68,202.14Z" transform="translate(-0.21 -0.88)"></path>
        <path d="M426.85,195.55a8.46,8.46,0,0,1,5.87,5.49,8.42,8.42,0,0,1,.15,4.92,8.55,8.55,0,1,1-12.52-9.57,8.65,8.65,0,0,1,6.5-.84Z" transform="translate(-0.21 -0.88)"></path>
        <path d="M67.2,205.48a1.68,1.68,0,0,1,.91.4,1.71,1.71,0,0,1,.5,1.84,1.73,1.73,0,0,1-3,.5,1.69,1.69,0,0,1-.14-1.89,1.68,1.68,0,0,1,1.71-.85Z" transform="translate(-0.21 -0.88)"></path>
        <path d="M403.76,194a6.33,6.33,0,0,1-5.21,11.27,6.42,6.42,0,0,1-2.25-1,6.3,6.3,0,0,1-1.47-8.82,6.5,6.5,0,0,1,8.93-1.41Z" transform="translate(-0.21 -0.88)"></path>
        <path d="M379.47,193a4.58,4.58,0,0,1,1.63.71,4.42,4.42,0,0,1,1.38,1.24,4.36,4.36,0,0,1,.77,1.68,4.44,4.44,0,0,1,0,1.85,4.53,4.53,0,0,1-2.07,3,4.76,4.76,0,0,1-1.76.63,4.44,4.44,0,0,1-1.85-.12,4.52,4.52,0,0,1-1.66-.85,4.45,4.45,0,0,1-1.87-4.65,4.45,4.45,0,0,1,.72-1.62,4.34,4.34,0,0,1,1.26-1.23,4.47,4.47,0,0,1,1.65-.66A4.79,4.79,0,0,1,379.47,193Z" transform="translate(-0.21 -0.88)"></path>
        <path d="M96.5,181.69a9.42,9.42,0,0,1,2.79,17.22,9.58,9.58,0,0,1-13.11-3.1,9.39,9.39,0,0,1,.42-10.48,9.55,9.55,0,0,1,9.9-3.64Z" transform="translate(-0.21 -0.88)"></path>
        <path d="M455,176.26a11.2,11.2,0,0,1,4.19,4.92A11.1,11.1,0,0,1,457,193.32a11.21,11.21,0,0,1-17.22-1.44,11,11,0,0,1-2-6.14,11.13,11.13,0,0,1,8.84-11A11.21,11.21,0,0,1,455,176.26Z" transform="translate(-0.21 -0.88)"></path>
        <path d="M71.4,183.3a1.85,1.85,0,0,1,.68.32,1.92,1.92,0,0,1,.5.56,2.18,2.18,0,0,1,.27.71,1.89,1.89,0,0,1,0,.75,2,2,0,0,1-3.56.56,2,2,0,0,1,.69-2.66,1.82,1.82,0,0,1,.7-.27A1.89,1.89,0,0,1,71.4,183.3Z" transform="translate(-0.21 -0.88)"></path>
        <path d="M420.72,170.59a8.6,8.6,0,0,1,3.07,1,8.33,8.33,0,0,1,3.28,3.5,8.2,8.2,0,0,1-1.22,9.06,8.31,8.31,0,0,1-12.8-.4,8.1,8.1,0,0,1-1.7-4.47,8.2,8.2,0,0,1,1.08-4.66,8.39,8.39,0,0,1,2.13-2.43,8.55,8.55,0,0,1,2.92-1.43A8.41,8.41,0,0,1,420.72,170.59Z" transform="translate(-0.21 -0.88)"></path>
        <path d="M373.69,174.33h.25a4.32,4.32,0,0,1,3.81,2.95,4.26,4.26,0,0,1,.06,2.5,4.35,4.35,0,0,1-3.65,3.14,4.25,4.25,0,0,1-2.48-.42,4.15,4.15,0,0,1-1.35-1,4.23,4.23,0,0,1-.84-1.47,4.35,4.35,0,0,1-.21-1.68,4.24,4.24,0,0,1,.46-1.63,4.37,4.37,0,0,1,3.69-2.37Z" transform="translate(-0.21 -0.88)"></path>
        <path d="M397.62,171.22a6.06,6.06,0,0,1,2.5,2.49,5.94,5.94,0,0,1,.7,3.45,6.09,6.09,0,0,1-4.3,5.23,6.11,6.11,0,0,1-6.5-1.93,6.08,6.08,0,0,1-1.38-3.24,6,6,0,0,1,.68-3.46,6.11,6.11,0,0,1,3.62-3A6.24,6.24,0,0,1,397.62,171.22Z" transform="translate(-0.21 -0.88)"></path>
        <path d="M100.75,170.48a.83.83,0,0,1,.52,1.15,1,1,0,0,1-.47.5.88.88,0,0,1-.35.1.92.92,0,0,1-.36-.07.81.81,0,0,1-.48-.5.9.9,0,0,1,.43-1.19A1,1,0,0,1,100.75,170.48Z" transform="translate(-0.21 -0.88)"></path>
        <path d="M403.92,151.49a8.13,8.13,0,1,0,4.37-4.31A8.08,8.08,0,0,0,403.92,151.49Z" transform="translate(-0.21 -0.88)"></path>
        <path d="M407.36,133.56a7.66,7.66,0,0,0-.23-4.47,7.81,7.81,0,0,0-14.36-.72,7.74,7.74,0,0,0,1.21,8.49,7.77,7.77,0,0,0,3.85,2.33,7.8,7.8,0,0,0,9.53-5.63Z" transform="translate(-0.21 -0.88)"></path>
        <path d="M386.16,102.78a7.55,7.55,0,1,0,4.65,3A7.54,7.54,0,0,0,386.16,102.78Z" transform="translate(-0.21 -0.88)"></path>
        <path d="M367.58,83.56a7.34,7.34,0,0,0-4.1,1.2,7.22,7.22,0,0,0,2.68,13.15,7.26,7.26,0,0,0,8.6-7.35,7.21,7.21,0,0,0-2.18-4.93A7.35,7.35,0,0,0,367.58,83.56Z" transform="translate(-0.21 -0.88)"></path>
        <path d="M354.22,72.63a7,7,0,0,0-1.78-3.69,7.11,7.11,0,0,0-10.94.63,7,7,0,0,0-1.35,3.86,6.88,6.88,0,0,0,1,3.95,7,7,0,0,0,3.07,2.72,7.16,7.16,0,0,0,4.08.55,7,7,0,0,0,2.59-.94,7.06,7.06,0,0,0,3.19-4.34A7,7,0,0,0,354.22,72.63Z" transform="translate(-0.21 -0.88)"></path>
        <path d="M330.55,57.31A6.69,6.69,0,0,0,328.36,54a6.82,6.82,0,0,0-11.14,5.91,6.81,6.81,0,0,0,1.53,3.64,6.9,6.9,0,0,0,9.62.93,6.77,6.77,0,0,0,2.46-4.58A6.66,6.66,0,0,0,330.55,57.31Z" transform="translate(-0.21 -0.88)"></path>
        <path d="M305,45.43a6.38,6.38,0,0,0-1.51-2,6.54,6.54,0,0,0-4.72-1.7,6.73,6.73,0,0,0-4.54,2.11A6.2,6.2,0,0,0,292.88,46a6.52,6.52,0,0,0,3.92,8.32,6.57,6.57,0,0,0,5-.21A6.48,6.48,0,0,0,305,45.43Z" transform="translate(-0.21 -0.88)"></path>
        <path d="M278.64,37.47a6.23,6.23,0,0,0-1.72-1.75,6.31,6.31,0,0,0-4.71-1,6.09,6.09,0,0,0-2.28.9,6.33,6.33,0,0,0-1.76,1.7,6.21,6.21,0,0,0-1,2.24,6.08,6.08,0,0,0,0,2.44,6.23,6.23,0,0,0,.91,2.27A6.2,6.2,0,0,0,272,47a6.36,6.36,0,0,0,2.46,0,6.43,6.43,0,0,0,2.27-.92,6.31,6.31,0,0,0,2.72-3.93A6.22,6.22,0,0,0,278.64,37.47Z" transform="translate(-0.21 -0.88)"></path>
        <path d="M243.37,32.64a6,6,0,0,0-2.08,4.1,5.91,5.91,0,0,0,.29,2.32,6.05,6.05,0,0,0,1.16,2,5.93,5.93,0,0,0,1.85,1.44,6.19,6.19,0,0,0,2.27.62,5.94,5.94,0,0,0,2.33-.29,5.86,5.86,0,0,0,2.05-1.15,6,6,0,0,0-3.49-10.5A6.07,6.07,0,0,0,243.37,32.64Z" transform="translate(-0.21 -0.88)"></path>
        <path d="M217,33.25a5.79,5.79,0,0,0,.51,8.12,5.72,5.72,0,0,0,1.95,1.14,5.81,5.81,0,0,0,4.43-.28,5.86,5.86,0,0,0,2.94-3.3,5.56,5.56,0,0,0,.3-2.22,5.47,5.47,0,0,0-.58-2.16,5.58,5.58,0,0,0-1.37-1.76,5.83,5.83,0,0,0-8.18.46Z" transform="translate(-0.21 -0.88)"></path>
        <path d="M199,35.79a5.65,5.65,0,0,0-7.71,1.54,5.54,5.54,0,0,0,5.73,8.48,5.64,5.64,0,0,0,2.84-1.52,5.49,5.49,0,0,0-.86-8.5Z" transform="translate(-0.21 -0.88)"></path>
        <path d="M168.47,51.76a4.93,4.93,0,0,0,2,.58A5,5,0,0,0,174.3,51a4.91,4.91,0,0,0,1.21-1.68,5.09,5.09,0,0,0,.61-2,4.93,4.93,0,0,0-.25-2.05,5.08,5.08,0,0,0-2.72-3,5.08,5.08,0,0,0-4.08-.38,5,5,0,0,0-1.8,1.05,5.08,5.08,0,0,0-1.22,1.69,5.31,5.31,0,0,0,2.42,7Z" transform="translate(-0.21 -0.88)"></path>
        <path d="M151.77,58.49a5,5,0,0,0-7-6,5,5,0,1,0,7,6Z" transform="translate(-0.21 -0.88)"></path>
        <path d="M123.69,74.56a4.84,4.84,0,0,0,5-2,4.76,4.76,0,0,0,0-5.33,4.84,4.84,0,0,0-7.42-.68A4.74,4.74,0,0,0,120,69a4.44,4.44,0,0,0,0,1.85,4.56,4.56,0,0,0,.71,1.7,4.63,4.63,0,0,0,1.31,1.3A4.79,4.79,0,0,0,123.69,74.56Z" transform="translate(-0.21 -0.88)"></path>
        <path d="M108.56,86.13a4.49,4.49,0,0,0-.63-2.55,4.57,4.57,0,0,0-7-1,4.52,4.52,0,0,0-1.37,2.24,4.42,4.42,0,0,0,.11,2.62,4.54,4.54,0,0,0,4,3,4.62,4.62,0,0,0,3.3-1.15,4.63,4.63,0,0,0,1.06-1.42A4.46,4.46,0,0,0,108.56,86.13Z" transform="translate(-0.21 -0.88)"></path>
        <path d="M89.85,104.47a4.22,4.22,0,0,0-.9-2.32,4.32,4.32,0,0,0-6.66-.12,4.17,4.17,0,0,0-1,2.28,4.21,4.21,0,0,0,.45,2.44,4.26,4.26,0,0,0,1.74,1.78,4.3,4.3,0,0,0,5.35-1A4.26,4.26,0,0,0,89.85,104.47Z" transform="translate(-0.21 -0.88)"></path>
        <path d="M68.75,122.61a4.06,4.06,0,0,0-2,1.14,4,4,0,0,0,3,6.8A4,4,0,0,0,73.39,128a3.94,3.94,0,0,0,.16-2.33,3.82,3.82,0,0,0-.63-1.43,4,4,0,0,0-1.13-1.08,3.92,3.92,0,0,0-1.47-.55A4,4,0,0,0,68.75,122.61Z" transform="translate(-0.21 -0.88)"></path>
        <path d="M53.17,152a3.74,3.74,0,1,0,6.22-3.88,3.69,3.69,0,0,0-1.87-1.08,3.74,3.74,0,0,0-2.17.14,3.8,3.8,0,0,0-1.24.77,3.74,3.74,0,0,0-.86,1.19,3.88,3.88,0,0,0-.33,1.42A3.94,3.94,0,0,0,53.17,152Z" transform="translate(-0.21 -0.88)"></path>
        <path d="M49.09,179a3.46,3.46,0,0,0-.71-6.37,3.52,3.52,0,0,0-2.66.29,3.43,3.43,0,0,0-1.06.87A3.22,3.22,0,0,0,44,175a3.47,3.47,0,0,0-.12,1.36,3.71,3.71,0,0,0,.43,1.29,3.47,3.47,0,0,0,2.09,1.66,3.48,3.48,0,0,0,1.36.12A3.68,3.68,0,0,0,49.09,179Z" transform="translate(-0.21 -0.88)"></path>
        <path d="M44.47,199.74a3.3,3.3,0,0,0-2.14-1.26,3.34,3.34,0,0,0-2.41.59,3.27,3.27,0,0,0-1.28,2.12,3.22,3.22,0,0,0,.6,2.4,3.25,3.25,0,0,0,4.55.67,3.25,3.25,0,0,0,.68-4.52Z" transform="translate(-0.21 -0.88)"></path>
        <path d="M42.09,225.46a3,3,0,0,0-1-.65,3.19,3.19,0,0,0-1.15-.23,3,3,0,0,0-1.14.23,2.88,2.88,0,0,0-1,.64,3.16,3.16,0,0,0-.66,1,3,3,0,1,0,4.89-.95Z" transform="translate(-0.21 -0.88)"></path>
        <path d="M43.24,251.06a2.85,2.85,0,0,0-3.87.49,2.79,2.79,0,0,0-.54,2,2.72,2.72,0,0,0,1,1.82,2.89,2.89,0,0,0,1,.63,3.06,3.06,0,0,0,1.16.17,3,3,0,0,0,1.13-.32,2.68,2.68,0,0,0,.89-.75,2.78,2.78,0,0,0,.51-1,2.71,2.71,0,0,0,0-1.17,2.8,2.8,0,0,0-1.32-1.85Z" transform="translate(-0.21 -0.88)"></path>
        <path d="M47.82,276.24A2.5,2.5,0,0,0,46,276a2.45,2.45,0,0,0-1.46,1.12,2.45,2.45,0,0,0,.78,3.31,2.51,2.51,0,0,0,.91.34,2.45,2.45,0,0,0,1-.05,2.37,2.37,0,0,0,.87-.43,2.32,2.32,0,0,0,.64-.72,2.47,2.47,0,0,0-.87-3.37Z" transform="translate(-0.21 -0.88)"></path>
        <path d="M53.81,304.65a2.28,2.28,0,0,0,1.29.13,2.18,2.18,0,0,0,1.14-.6,2.22,2.22,0,0,0,.49-2.41,2.2,2.2,0,0,0-.82-1,2.15,2.15,0,0,0-1.23-.38,2.28,2.28,0,0,0-1.24.37,2.2,2.2,0,0,0-.82,1,2,2,0,0,0-.18.84,2.26,2.26,0,0,0,.17.85,2.21,2.21,0,0,0,1.2,1.2Z" transform="translate(-0.21 -0.88)"></path>
        <path d="M384.2,160a5.92,5.92,0,0,0,7.57-3.54,5.81,5.81,0,0,0-.21-4.5,5.92,5.92,0,0,0-5.64-3.37,5.9,5.9,0,0,0-4.1,1.92,5.86,5.86,0,0,0-1.53,4.24,5.67,5.67,0,0,0,.55,2.22,5.83,5.83,0,0,0,3.36,3Z" transform="translate(-0.21 -0.88)"></path>
        <path d="M373.32,139.43a5.81,5.81,0,0,0,3.3-.3,5.72,5.72,0,0,0,2.59-2.07,5.65,5.65,0,0,0,.06-6.3,5.71,5.71,0,0,0-2.54-2.12,5.82,5.82,0,0,0-3.3-.35,5.68,5.68,0,0,0-.11,11.14Z" transform="translate(-0.21 -0.88)"></path>
        <path d="M360.78,110a5.42,5.42,0,0,0-5.73,6.13,5.37,5.37,0,0,0,1.3,2.86,5.48,5.48,0,0,0,8.42-.25,5.4,5.4,0,0,0,1.14-2.93,5.52,5.52,0,0,0-5.13-5.81Z" transform="translate(-0.21 -0.88)"></path>
        <path d="M339,99.81a4.89,4.89,0,0,0,.53,2,5,5,0,0,0,3.05,2.55,5,5,0,0,0,2,.18,5.06,5.06,0,0,0,3.48-1.69,5,5,0,0,0,1.25-3.64,5.24,5.24,0,0,0-1.76-3.38,5.34,5.34,0,0,0-3.6-1.32,5.06,5.06,0,0,0-2,.44,5,5,0,0,0-2.71,2.91A4.86,4.86,0,0,0,339,99.81Z" transform="translate(-0.21 -0.88)"></path>
        <path d="M331.08,84.91a5.13,5.13,0,0,0-2.19-3.22,5.15,5.15,0,0,0-5.68,0,5.18,5.18,0,0,0-1.4,1.4,5.09,5.09,0,0,0-.74,3.82A5.07,5.07,0,0,0,327,90.8a5.1,5.1,0,0,0,1.85-.72,5,5,0,0,0,1.43-1.38,5,5,0,0,0,.81-3.79Z" transform="translate(-0.21 -0.88)"></path>
        <path d="M302,76.57a5,5,0,0,0,2.19,4,5.15,5.15,0,0,0,2.2.84,5,5,0,0,0,4.69-8A4.81,4.81,0,0,0,302,76.57Z" transform="translate(-0.21 -0.88)"></path>
        <path d="M289.77,64.65a4.54,4.54,0,0,0-1.86-1.9,4.63,4.63,0,0,0-2.61-.55,4.53,4.53,0,0,0-2.48,1,4.59,4.59,0,0,0-1.52,2.18,4.52,4.52,0,0,0,0,2.65,4.6,4.6,0,0,0,1.44,2.23,4.65,4.65,0,0,0,5.08.58,4.48,4.48,0,0,0,1.41-1.11,4.54,4.54,0,0,0,.58-5.06Z" transform="translate(-0.21 -0.88)"></path>
        <path d="M260.33,63.79A4.25,4.25,0,0,0,261.54,65a4.32,4.32,0,0,0,1.58.62,4.42,4.42,0,0,0,1.7,0,4.54,4.54,0,0,0,2.75-1.9,4.33,4.33,0,0,0-.05-4.8,4.46,4.46,0,0,0-6.1-1.13A4.32,4.32,0,0,0,260.23,59a4.15,4.15,0,0,0-.63,1.59,4.33,4.33,0,0,0,.73,3.25Z" transform="translate(-0.21 -0.88)"></path>
        <path d="M238.7,55.79a4.11,4.11,0,0,0,2.62,6.76A3.87,3.87,0,0,0,244.44,56a4.21,4.21,0,0,0-5.74-.24Z" transform="translate(-0.21 -0.88)"></path>
        <path d="M216.26,62.34a4,4,0,0,0,5.55-.35,3.93,3.93,0,0,0-.67-5.31,4,4,0,0,0-5.37.3,3.89,3.89,0,0,0,.49,5.36Z" transform="translate(-0.21 -0.88)"></path>
        <path d="M194.05,66.15a3.77,3.77,0,0,0,2.11.62,3.85,3.85,0,0,0,2.1-.67,3.8,3.8,0,0,0,1.35-1.72,3.7,3.7,0,0,0-1-4.07,3.77,3.77,0,0,0-4.16-.61,3.74,3.74,0,0,0-1.61,1.49,3.63,3.63,0,0,0,1.17,5Z" transform="translate(-0.21 -0.88)"></path>
        <path d="M170.33,68.5a3.47,3.47,0,0,0,4.43,4.65A3.46,3.46,0,0,0,177,70a3.4,3.4,0,0,0-.53-1.94,3.47,3.47,0,0,0-1.54-1.32,3.32,3.32,0,0,0-1.32-.31,3.45,3.45,0,0,0-1.35.22,3.48,3.48,0,0,0-1.93,1.84Z" transform="translate(-0.21 -0.88)"></path>
        <path d="M152.67,77a3.34,3.34,0,0,0-1.26-.11,3.3,3.3,0,0,0-1.21.39,3.21,3.21,0,0,0-1.54,1.94,3.26,3.26,0,0,0,1.09,3.48,3.31,3.31,0,0,0,1.78.7,3.28,3.28,0,0,0,3.54-3.64,3.26,3.26,0,0,0-2.4-2.76Z" transform="translate(-0.21 -0.88)"></path>
        <path d="M131.87,95.79a3.18,3.18,0,0,0,1.19-.07,3,3,0,0,0,1.07-.52,3.16,3.16,0,0,0,.79-.88,2.92,2.92,0,0,0,.38-1.12,3,3,0,1,0-5.43,1.4A3.1,3.1,0,0,0,131.87,95.79Z" transform="translate(-0.21 -0.88)"></path>
        <path d="M117.44,108a2.86,2.86,0,0,0-.22-1.08,2.8,2.8,0,0,0-1.53-1.52,2.86,2.86,0,0,0-3.1.61,2.8,2.8,0,0,0-.61.91,2.89,2.89,0,0,0-.22,1.08,2.83,2.83,0,0,0,.83,2,2.91,2.91,0,0,0,2,.82,2.85,2.85,0,0,0,2-.83A2.81,2.81,0,0,0,117.44,108Z" transform="translate(-0.21 -0.88)"></path>
        <path d="M97.25,125.45a2.64,2.64,0,0,0,5-.72,2.46,2.46,0,0,0-.34-1,2.66,2.66,0,0,0-.67-.75,2.54,2.54,0,0,0-.91-.43,2.64,2.64,0,0,0-1,0,2.54,2.54,0,0,0-1.64,1A2.63,2.63,0,0,0,97.25,125.45Z" transform="translate(-0.21 -0.88)"></path>
        <path d="M88.17,146.1a2.13,2.13,0,0,0,.82-.42,2.41,2.41,0,0,0,.61-.7,2.27,2.27,0,0,0,.28-.88,2.38,2.38,0,0,0-.07-.92,2.3,2.3,0,0,0-.43-.82,2.4,2.4,0,0,0-2.51-.81A2.6,2.6,0,0,0,86,142a2.55,2.55,0,0,0-.6.71,2.47,2.47,0,0,0-.29.88,2.5,2.5,0,0,0,.49,1.75,2.17,2.17,0,0,0,.71.6,2.34,2.34,0,0,0,1.82.19Z" transform="translate(-0.21 -0.88)"></path>
        <path d="M79.81,163.14a2.13,2.13,0,0,0-.8-1,2.16,2.16,0,0,0-1.21-.37,2.18,2.18,0,0,0-1.21.37,2.13,2.13,0,0,0-.8,1,2.06,2.06,0,0,0-.12,1.25,2.14,2.14,0,0,0,.61,1.11,2.22,2.22,0,0,0,3.09,0,2,2,0,0,0,.46-.69A2.1,2.1,0,0,0,80,164,1.91,1.91,0,0,0,79.81,163.14Z" transform="translate(-0.21 -0.88)"></path>
        <path d="M367.68,156.85a4.25,4.25,0,0,0-3.19.23,4.2,4.2,0,0,0-2.12,2.36,4.1,4.1,0,0,0,.21,3.15,4.27,4.27,0,0,0,1,1.28,4.37,4.37,0,0,0,1.41.8,4.09,4.09,0,0,0,3.17-.18,4.09,4.09,0,0,0,1.28-1,4,4,0,0,0,.81-1.39,4.15,4.15,0,0,0,.23-1.6,4,4,0,0,0-.4-1.57,4.09,4.09,0,0,0-2.39-2.1Z" transform="translate(-0.21 -0.88)"></path>
        <path d="M357.61,140.16a4,4,0,0,0-2.28.24,4.14,4.14,0,0,0-1.78,1.45,4,4,0,0,0,0,4.37,4.07,4.07,0,0,0,1.75,1.48,4,4,0,0,0,5.49-2.7,3.88,3.88,0,0,0,0-1.59,4,4,0,0,0-.58-1.49,3.92,3.92,0,0,0-1.12-1.14A4.2,4.2,0,0,0,357.61,140.16Z" transform="translate(-0.21 -0.88)"></path>
        <path d="M345.15,125a3.88,3.88,0,0,0-2.74,1,3.75,3.75,0,0,0-1.1,4,3.8,3.8,0,0,0,1.92,2.17,4,4,0,0,0,1.43.37,3.79,3.79,0,0,0,3.66-2.1,3.7,3.7,0,0,0,.38-1.42,3.82,3.82,0,0,0-.95-2.72A3.9,3.9,0,0,0,345.15,125Z" transform="translate(-0.21 -0.88)"></path>
        <path d="M334.68,114.83a3.47,3.47,0,0,0-.36-1.34,3.22,3.22,0,0,0-.85-1.09,3.47,3.47,0,0,0-1.21-.69,5.41,5.41,0,0,0-2.87.07,3.61,3.61,0,0,0-1.26.82,3.33,3.33,0,0,0-.81,1.25,3.59,3.59,0,0,0-.23,1.48,3.42,3.42,0,0,0,.41,1.44,3.69,3.69,0,0,0,1,1.15,3.64,3.64,0,0,0,1.36.65,3.45,3.45,0,0,0,1.5,0,3.59,3.59,0,0,0,1.37-.34,3.5,3.5,0,0,0,1.82-2A3.46,3.46,0,0,0,334.68,114.83Z" transform="translate(-0.21 -0.88)"></path>
        <path d="M316.17,106.58a3.42,3.42,0,0,0,1.23-.51,3.61,3.61,0,0,0,.93-.94,3.4,3.4,0,0,0,.49-1.22,3.26,3.26,0,0,0,0-1.32,3.4,3.4,0,0,0-.51-1.21,3.46,3.46,0,0,0-.95-.92,3.4,3.4,0,0,0-1.23-.5,3.45,3.45,0,0,0-1.32,0,3.72,3.72,0,0,0-1.24.5,3.35,3.35,0,0,0-1.43,2.17,3.31,3.31,0,0,0,0,1.33,3.4,3.4,0,0,0,.51,1.21,3.33,3.33,0,0,0,.95.92,3.4,3.4,0,0,0,1.23.5A3.45,3.45,0,0,0,316.17,106.58Z" transform="translate(-0.21 -0.88)"></path>
        <path d="M295.06,94.67a3.29,3.29,0,0,0,.64,1.08,3.34,3.34,0,0,0,1,.74,3.46,3.46,0,0,0,1.23.29,3.42,3.42,0,0,0,2.32-.83,3.14,3.14,0,0,0,.74-1,3.17,3.17,0,0,0,.3-1.21,3,3,0,0,0-.2-1.22,3.06,3.06,0,0,0-.63-1.07,2.92,2.92,0,0,0-1-.75,3,3,0,0,0-1.21-.31,3.08,3.08,0,0,0-1.24.17,3.29,3.29,0,0,0-1.82,1.66A3.23,3.23,0,0,0,295.06,94.67Z" transform="translate(-0.21 -0.88)"></path>
        <path d="M276.47,87.64a3,3,0,0,0,1.79,1.46,3.07,3.07,0,0,0,2.3-.21,3,3,0,0,0,.92-.73,2.93,2.93,0,0,0,.34-3.32A3,3,0,0,0,280,83.37a3.07,3.07,0,0,0-2.3.21,3,3,0,0,0-1.27,4.06Z" transform="translate(-0.21 -0.88)"></path>
        <path d="M256.67,82.9a2.85,2.85,0,0,0,3.94.65,2.77,2.77,0,0,0,.76-.8,2.84,2.84,0,0,0,.38-1,2.68,2.68,0,0,0-.05-1.09,2.74,2.74,0,0,0-.47-1,2.83,2.83,0,0,0-1.84-1.14,2.8,2.8,0,0,0-2.86,1.28,2.81,2.81,0,0,0-.39,1,2.91,2.91,0,0,0,.05,1.1A2.76,2.76,0,0,0,256.67,82.9Z" transform="translate(-0.21 -0.88)"></path>
        <path d="M240.52,81.55a2.55,2.55,0,0,0,.69-.84,2.49,2.49,0,0,0,.29-1,2.58,2.58,0,0,0-.16-1.07,2.55,2.55,0,0,0-.57-.91,2.66,2.66,0,0,0-.9-.61,2.73,2.73,0,0,0-1.06-.19,2.61,2.61,0,0,0-1.06.25,2.48,2.48,0,0,0-.86.65,2.64,2.64,0,0,0-.65,1.78,2.64,2.64,0,0,0,2.47,2.54A2.64,2.64,0,0,0,240.52,81.55Z" transform="translate(-0.21 -0.88)"></path>
        <path d="M217.17,82.51a2.5,2.5,0,0,0,2.74.41,2.54,2.54,0,0,0,1.07-1,2.44,2.44,0,0,0-.17-2.75,2.48,2.48,0,0,0-2.63-.86,2.45,2.45,0,0,0-1,4.18Z" transform="translate(-0.21 -0.88)"></path>
        <path d="M201.44,85.37a2.26,2.26,0,0,0-.8-3.07,2.13,2.13,0,0,0-.83-.3,2,2,0,0,0-.88,0,2.19,2.19,0,0,0-.8.38,2.28,2.28,0,0,0-.58.66,2.26,2.26,0,0,0,.8,3.07,2.34,2.34,0,0,0,1.7.22A2.31,2.31,0,0,0,201.44,85.37Z" transform="translate(-0.21 -0.88)"></path>
        <path d="M179.1,89.54a2,2,0,0,0-.16.77,2,2,0,0,0,1.24,1.88,2.13,2.13,0,0,0,1.59,0,2,2,0,0,0,1.13-1.1,2,2,0,0,0,0-1.58,2,2,0,0,0-1.13-1.11,1.91,1.91,0,0,0-.78-.16,2.1,2.1,0,0,0-.79.16,2.06,2.06,0,0,0-1.1,1.12Z" transform="translate(-0.21 -0.88)"></path>
        <path d="M164,97a1.9,1.9,0,0,0-1.42.18,1.86,1.86,0,0,0-.88,1.12,1.92,1.92,0,0,0,.19,1.41,2,2,0,0,0,1.12.88,1.88,1.88,0,0,0,2.3-1.3,2,2,0,0,0,.07-.73,1.93,1.93,0,0,0-.23-.7,1.83,1.83,0,0,0-.49-.55A1.91,1.91,0,0,0,164,97Z" transform="translate(-0.21 -0.88)"></path>
        <path d="M149.07,109.8a1.7,1.7,0,0,0-1.44-1.87,1.68,1.68,0,0,0-1.24.33,1.66,1.66,0,0,0-.65,1.1,1.67,1.67,0,0,0,1.44,1.87,1.64,1.64,0,0,0,.66,0,1.56,1.56,0,0,0,.58-.28,1.71,1.71,0,0,0,.44-.49A1.69,1.69,0,0,0,149.07,109.8Z" transform="translate(-0.21 -0.88)"></path>
        <path d="M131.25,122.15a1.43,1.43,0,0,0,.06.65,1.53,1.53,0,0,0,.34.56,1.37,1.37,0,0,0,.55.37,1.43,1.43,0,0,0,.65.1,1.39,1.39,0,0,0,.63-.18,1.49,1.49,0,0,0,.5-.43,1.53,1.53,0,0,0,.26-.6,1.47,1.47,0,0,0,0-.66,1.55,1.55,0,0,0-.11-.56,1.52,1.52,0,0,0-.79-.79,1.38,1.38,0,0,0-.56-.12,1.67,1.67,0,0,0-.63.11,1.5,1.5,0,0,0-.52.37,1.53,1.53,0,0,0-.32.55A1.49,1.49,0,0,0,131.25,122.15Z" transform="translate(-0.21 -0.88)"></path>
        <path d="M121.17,136.73a1.25,1.25,0,0,0-.16-.47,1.42,1.42,0,0,0-.33-.36,1.57,1.57,0,0,0-.45-.22,1.16,1.16,0,0,0-.49,0,1.33,1.33,0,0,0-.86.49,1.26,1.26,0,0,0-.27.94,1.39,1.39,0,0,0,.52.85,1.34,1.34,0,0,0,1,.26,1.36,1.36,0,0,0,.48-.16,1.24,1.24,0,0,0,.37-.35,1.28,1.28,0,0,0,.21-.46A1.2,1.2,0,0,0,121.17,136.73Z" transform="translate(-0.21 -0.88)"></path>
        <path d="M108.77,152.21a1,1,0,0,0-.4.18,1,1,0,0,0-.29.32,1.23,1.23,0,0,0-.14.42,1.27,1.27,0,0,0,0,.43,1.16,1.16,0,0,0,.52.67,1.14,1.14,0,0,0,.85.1,1.18,1.18,0,0,0,.65-.53,1.14,1.14,0,0,0,.12-.83,1,1,0,0,0-.52-.66A1.07,1.07,0,0,0,108.77,152.21Z" transform="translate(-0.21 -0.88)"></path>
        <path d="M430.49,151a10.75,10.75,0,0,0,1.79,11.88,10.92,10.92,0,0,0,16.8-.88,10.76,10.76,0,0,0,.54-12,10.91,10.91,0,0,0-19.13,1Z" transform="translate(-0.21 -0.88)"></path>
        <path d="M417.73,124.5a10.51,10.51,0,0,0,9,13.56,10.68,10.68,0,0,0,6-1.16,10.47,10.47,0,0,0-1.83-19.32,10.63,10.63,0,0,0-13.19,6.92Z" transform="translate(-0.21 -0.88)"></path>
        <path d="M401.67,100.35a9.89,9.89,0,0,0,.86,5.72,10,10,0,0,0,3.89,4.3,10.15,10.15,0,0,0,14.71-5,10,10,0,0,0-2.45-10.82A10.17,10.17,0,0,0,409.46,92a10.35,10.35,0,0,0-3.68,1.64,10.11,10.11,0,0,0-4.11,6.73Z" transform="translate(-0.21 -0.88)"></path>
        <path d="M382.67,78.64a10,10,0,0,0,5.93,9.54,10.14,10.14,0,0,0,5.85.76,10.25,10.25,0,0,0,5.28-2.62,10,10,0,0,0-1.2-15.56,10.2,10.2,0,0,0-12.72,1A10,10,0,0,0,382.67,78.64Z" transform="translate(-0.21 -0.88)"></path>
        <path d="M361,59.67a9.61,9.61,0,0,0,2.2,5.16,9.75,9.75,0,0,0,15-.14,9.61,9.61,0,0,0-3.07-14.6A9.67,9.67,0,0,0,361,59.67Z" transform="translate(-0.21 -0.88)"></path>
        <path d="M337.05,43.71a9.31,9.31,0,0,0,2.76,4.64,9.43,9.43,0,0,0,10.27,1.56,9.39,9.39,0,0,0,4-3.6A9.23,9.23,0,0,0,353.69,36a9.36,9.36,0,0,0-4.33-3.24,9.38,9.38,0,0,0-11.22,3.9,9.17,9.17,0,0,0-1.25,3.42A9.07,9.07,0,0,0,337.05,43.71Z" transform="translate(-0.21 -0.88)"></path>
        <path d="M311.06,31a9,9,0,0,0,8.26,5.67,9.12,9.12,0,0,0,5.05-1.43,9,9,0,0,0-2.93-16.34,9.08,9.08,0,0,0-8.23,2.3,9,9,0,0,0-2.15,9.8Z" transform="translate(-0.21 -0.88)"></path>
        <path d="M283.37,21.77a8.84,8.84,0,0,0,2.23,2.64A9.08,9.08,0,0,0,288.67,26a8.93,8.93,0,0,0,3.45.3,9.08,9.08,0,0,0,3.3-1,8.77,8.77,0,0,0,2.66-2.22A8.82,8.82,0,0,0,300,16.57a8.87,8.87,0,0,0-1-3.28,8.82,8.82,0,0,0-11.73-3,8.71,8.71,0,0,0-3.64,11.49Z" transform="translate(-0.21 -0.88)"></path>
        <path d="M254.4,16.3a8.51,8.51,0,0,0,15.2-3.91,8.45,8.45,0,0,0-4.09-8.45A8.47,8.47,0,0,0,254.4,16.3Z" transform="translate(-0.21 -0.88)"></path>
        <path d="M224.39,3.24a8.13,8.13,0,0,0-1.79,8.86,8.2,8.2,0,0,0,7.55,5,8.29,8.29,0,0,0,4.56-1.36,8.19,8.19,0,0,0,3-3.64A8.08,8.08,0,0,0,236,3.26a8.29,8.29,0,0,0-11.61,0Z" transform="translate(-0.21 -0.88)"></path>
        <path d="M193.62,17.45A7.94,7.94,0,0,0,197.91,19a7.94,7.94,0,0,0,7.55-4.4A7.77,7.77,0,0,0,204.29,6a7.91,7.91,0,0,0-8.46-2.23,7.82,7.82,0,0,0-2.21,13.67Z" transform="translate(-0.21 -0.88)"></path>
        <path d="M163.55,24.38a7.68,7.68,0,0,0,9.91-3.21,7.57,7.57,0,0,0-2.53-10,7.62,7.62,0,0,0-8.44.7,7.9,7.9,0,0,0-1.92,2.27,7.57,7.57,0,0,0,3,10.28Z" transform="translate(-0.21 -0.88)"></path>
        <path d="M144.86,30.89a7.08,7.08,0,0,0,.71-2.9,7.33,7.33,0,0,0-14.36-2.28,7.16,7.16,0,0,0-.71,2.9,7,7,0,0,0,.52,2.94A7.3,7.3,0,0,0,132.68,34a7.44,7.44,0,0,0,2.52,1.61,7.4,7.4,0,0,0,5.88-.28,7.46,7.46,0,0,0,2.36-1.85A7.31,7.31,0,0,0,144.86,30.89Z" transform="translate(-0.21 -0.88)"></path>
        <path d="M117.82,44.12a6.91,6.91,0,0,0,.2-2.79,7.11,7.11,0,0,0-.92-2.64,7.06,7.06,0,0,0-4.45-3.23,7.19,7.19,0,0,0-2.81-.08,7.33,7.33,0,0,0-2.62,1,7,7,0,0,0-2,2A6.79,6.79,0,0,0,104.15,41a7,7,0,0,0,5.3,8.1,7.08,7.08,0,0,0,5.19-.8A7,7,0,0,0,117.82,44.12Z" transform="translate(-0.21 -0.88)"></path>
        <path d="M93.13,60.68a6.74,6.74,0,0,0-11-5.75A6.77,6.77,0,0,0,80,58.17a6.66,6.66,0,0,0,0,3.88,6.76,6.76,0,0,0,10.73,3.16,6.86,6.86,0,0,0,1.65-2A6.71,6.71,0,0,0,93.13,60.68Z" transform="translate(-0.21 -0.88)"></path>
        <path d="M71.06,80.34a6.34,6.34,0,0,0-1.21-3.54,6.49,6.49,0,0,0-6.74-2.52,6.6,6.6,0,0,0-3.26,1.88,6.44,6.44,0,0,0,5,10.81,6.48,6.48,0,0,0,4.48-2A6.4,6.4,0,0,0,71.06,80.34Z" transform="translate(-0.21 -0.88)"></path>
        <path d="M51.79,102.69a6,6,0,0,0-1.61-3.14,6.11,6.11,0,0,0-6.63-1.45,6.06,6.06,0,0,0-.26,11.22,6.13,6.13,0,0,0,8.5-6.63Z" transform="translate(-0.21 -0.88)"></path>
        <path d="M35.71,127.41a5.79,5.79,0,0,0-1.91-2.8,5.86,5.86,0,0,0-6.49-.59,5.81,5.81,0,0,0,1.15,10.71,6,6,0,0,0,3.4,0,5.85,5.85,0,0,0,3.44-2.86A5.74,5.74,0,0,0,35.71,127.41Z" transform="translate(-0.21 -0.88)"></path>
        <path d="M23,154.23a5.49,5.49,0,0,0-3.13-2.83A5.54,5.54,0,0,0,13,158.94,5.56,5.56,0,0,0,16.1,161a5.65,5.65,0,0,0,3.73-.39,5.53,5.53,0,0,0,3-6.36Z" transform="translate(-0.21 -0.88)"></path>
        <path d="M14,182.78a5.25,5.25,0,0,0-9.52,1.68,5.14,5.14,0,0,0,.7,3.91,5,5,0,0,0,1.4,1.53,4.86,4.86,0,0,0,1.9.84,5,5,0,0,0,2.08,0,5.08,5.08,0,0,0,1.91-.82A5.07,5.07,0,0,0,14,188.54a5,5,0,0,0,.83-3.89A5,5,0,0,0,14,182.78Z" transform="translate(-0.21 -0.88)"></path>
        <path d="M9,212.64a5,5,0,0,0-8.54,5A5,5,0,0,0,2.16,220a5.08,5.08,0,0,0,5.65.38,5,5,0,0,0,2-2.17A5,5,0,0,0,9,212.64Z" transform="translate(-0.21 -0.88)"></path>
        <path d="M8.27,243.65a4.65,4.65,0,0,0-7.72,3.78,4.71,4.71,0,0,0,1.57,3.2,4.78,4.78,0,0,0,6.61-.42,4.65,4.65,0,0,0-.46-6.56Z" transform="translate(-0.21 -0.88)"></path>
        <path d="M12,275a4.42,4.42,0,0,0-5.37,1.74A4.31,4.31,0,0,0,6,279.67a4.38,4.38,0,0,0,1.39,2.64A4.42,4.42,0,0,0,13.41,281a4.32,4.32,0,0,0,.61-1.6,4.43,4.43,0,0,0-.06-1.7,4.31,4.31,0,0,0-2-2.7Z" transform="translate(-0.21 -0.88)"></path>
        <path d="M22,310.38a4.06,4.06,0,0,0,.38-1.53,4,4,0,0,0-.24-1.56A4,4,0,0,0,20,305a4.15,4.15,0,0,0-5.45,2,4,4,0,0,0,0,3,4.06,4.06,0,0,0,2.07,2.15,4.15,4.15,0,0,0,3,.18A4.11,4.11,0,0,0,22,310.38Z" transform="translate(-0.21 -0.88)"></path>
        <path d="M34.36,337.74a3.89,3.89,0,0,0,.21-1.51,3.72,3.72,0,0,0-.42-1.47,3.58,3.58,0,0,0-1-1.19,4,4,0,0,0-1.37-.71,3.75,3.75,0,0,0-4.91,2.48,3.86,3.86,0,0,0-.24,1.51,3.65,3.65,0,0,0,.38,1.48,4,4,0,0,0,.94,1.21,3.85,3.85,0,0,0,1.35.73,4,4,0,0,0,1.53.15,4,4,0,0,0,1.47-.47,3.74,3.74,0,0,0,1.15-1,3.91,3.91,0,0,0,.66-1.38Z" transform="translate(-0.21 -0.88)"></path>
        <path d="M50.17,362.67a3.51,3.51,0,0,0-2.89-4,3.48,3.48,0,0,0-4,2.87,3.19,3.19,0,0,0,0,1.34A3.38,3.38,0,0,0,44.87,365a3.39,3.39,0,0,0,1.27.45,3.49,3.49,0,0,0,4-2.81Z" transform="translate(-0.21 -0.88)"></path>
    </g>
    <defs>
        <linearGradient id="event">
            <stop offset="0%" stop-color="#28B6D7"></stop>
            <stop offset="100%" stop-color="#0BDBE8"></stop>
        </linearGradient>
        <linearGradient id="holiday">
            <stop offset="0%" stop-color="#FF5C2A"></stop>
            <stop offset="100%" stop-color="#FC8D08"></stop>
        </linearGradient>
    </defs>
</svg>

