<?xml version="1.0" encoding="UTF-8"?> <svg xmlns="http://www.w3.org/2000/svg" width="1766" height="460" viewBox="0 0 1766 460" fill="none"> <circle cx="404.5" cy="175.5" r="97.5" fill="#F0ECE2"></circle> <circle cx="524" cy="158" r="94" fill="#F0ECE2"></circle> <circle cx="991" cy="154" r="57" fill="#F0ECE2"></circle> <circle cx="618" cy="135" r="57" fill="#F0ECE2"></circle> <circle cx="164" cy="85" r="57" fill="#F0ECE2"></circle> <ellipse cx="100" cy="97.5" rx="67" ry="67.5" fill="#F0ECE2"></ellipse> <circle cx="789.5" cy="158.5" r="97.5" fill="#F0ECE2"></circle> <circle cx="876.5" cy="182.5" r="97.5" fill="#F0ECE2"></circle> <circle cx="662.5" cy="232.5" r="137.5" fill="#F0ECE2"></circle> <ellipse cx="1272.5" cy="184" rx="119.5" ry="120" fill="#F0ECE2"></ellipse> <circle cx="1175.5" cy="171.5" r="97.5" fill="#F0ECE2"></circle> <circle cx="1071.5" cy="205.5" r="97.5" fill="#F0ECE2"></circle> <circle cx="1399.5" cy="106.5" r="87.5" fill="#F0ECE2"></circle> <circle cx="1549" cy="162" r="162" fill="#F0ECE2"></circle> <circle cx="272" cy="169" r="119" fill="#F0ECE2"></circle> <circle cx="271.5" cy="232.5" r="110.5" fill="#FFF7E5"></circle> <circle cx="404.5" cy="204.5" r="106.5" fill="#FFF7E5"></circle> <circle cx="932.5" cy="199.5" r="64.5" fill="#FFF7E5"></circle> <circle cx="504.5" cy="167.5" r="64.5" fill="#FFF7E5"></circle> <circle cx="705.5" cy="195.5" r="110.5" fill="#FFF7E5"></circle> <circle cx="828.5" cy="213.5" r="110.5" fill="#FFF7E5"></circle> <circle cx="739.5" cy="311.5" r="110.5" fill="#FFF7E5"></circle> <circle cx="560.5" cy="304.5" r="155.5" fill="#FFF7E5"></circle> <circle cx="1295.5" cy="232.5" r="135.5" fill="#FFF7E5"></circle> <circle cx="1141.5" cy="219.5" r="110.5" fill="#FFF7E5"></circle> <circle cx="1036.5" cy="286.5" r="110.5" fill="#FFF7E5"></circle> <circle cx="1382" cy="159" r="86" fill="#FFF7E5"></circle> <circle cx="1582.5" cy="213.5" r="183.5" fill="#FFF7E5"></circle> <circle cx="134.5" cy="199.5" r="134.5" fill="#FFF7E5"></circle> </svg> 