<svg xmlns="http://www.w3.org/2000/svg" viewBox="0 0 55.4423828125 97.1693115234375" fill="none">
    <path d="M55.426898903786594 72.01391124278575C55.35497365040822 69.53298948215794 54.92342213013795 67.12374323444539 54.1684567101281 64.8223848668004C53.70094256316863 63.38387979923283 53.125540536141614 61.98158709881757 52.478462996199326 60.615257025091495C50.64436903505068 56.80346833650056 48.3070480407165 53.09981726844032 45.4305373865076 49.97131848694397C42.87744063203829 47.16673308611346 39.964717610677084 44.46978582488739 38.70627541701858 40.8378102697424C37.48354610958615 37.38589758850648 38.3106865234375 34.22143618032094 38.20279864336993 30.733560872395834C38.094910763302366 27.784875224345438 37.12416958315738 24.548688355152027 35.54181400883305 22.103504454796592C35.3620008753871 21.815853389375704 35.18218774194116 21.56413997659769 35.03833723518441 21.27646393713049C34.714923335444816 20.62921157886402 34.64299808206644 20.449423419464388 34.966411981806026 20.91688761833122C38.16683601668074 18.68745450406461 41.223409544798706 15.127554046575872 41.906449711430184 11.35190280299831C42.23011335163289 9.482046007530968 42.338001231700446 7.54028893273156 42.122225471565315 5.63449448462134C42.08626284487613 5.167030285754504 42.01433759149775 4.591678206820101 41.94241233811937 3.980388475242821C41.76259920467342 2.6858837587098816 41.439185304933844 1.2475385250387105 40.5760822643933 0.5643235400830519C40.14453074412303 0.20473873010803773 39.56912871709601 0.09686283758269988 38.99397643053209 0.02494575071746551C33.92374554828266 -0.4065574947212838 30.903134646853886 4.843391619598114 30.903134646853886 9.302257848131335C30.903134646853886 11.42382805637669 31.406611420502536 13.61729854395411 29.896430840019708 15.379267459353885C29.464879319749436 15.846731658220722 28.997365172789976 16.20630797701999 28.529851025830517 16.49398401648719C28.493888399141326 16.52994664317638 28.421963145762952 16.56588429581926 28.386000519073765 16.56588429581926C28.02662399264499 16.458021389798 27.6669977257531 16.38609613641962 27.271408832172014 16.314195857087558V16.278233230398367C27.52314721899634 14.624127221019847 28.278112639006196 13.077909091708896 28.88947729272241 11.531690962397946C29.500841946438626 9.913547579708615 29.896430840019708 8.11561603761965 29.321028812992683 6.497497628976633C28.45792577245214 3.980388475242821 25.68930299831081 3.5488869030651746 23.783408654015343 5.167030285754504C22.95636813634924 5.88618292335304 22.34505343072565 6.857073947775901 21.98547711192638 7.899865251530828C21.3741873803491 9.553971260909346 21.26629950028153 11.35190280299831 21.6618634198163 13.077909091708896C21.913551858548 14.192625648842203 22.488903937482405 15.307342205975507 22.74061735026042 16.458021389798C21.98547711192638 16.601846922508447 21.26629950028153 16.745697429265203 20.511184235993806 16.925485588664838C20.36733372923705 16.96144821535403 20.223508196526605 16.9973858679969 20.079682663816158 17.03334849468609C19.14475426608249 17.249099280774917 17.88621217623874 17.644663200309687 16.663607739037865 18.07616477248733C15.04548933039485 18.65149187737542 13.607134107105153 19.58642027510909 12.348592017261403 20.73709945893159C11.233875460128097 21.779890762686513 10.155121529683981 22.60693128035262 9.83148286352759 24.18911203635276C9.471906544728322 26.058918883727475 9.328056037971566 27.497423951295044 8.033551321438626 29.007604531777872C6.8109718582840655 30.40989723219313 5.516442167704814 31.74051441969313 4.1859748244826855 33.07088186673001C3.2510464267490145 34.04187278733812 1.2373740881897524 34.94068871410472 0.9137454116518863 36.30726852829392C0.7699123867275479 36.84645818816863 0.9856681676256335 36.882420814857824 0.9856681676256335 38.3209258824254C0.9856681676256335 39.72321858284065 0.8058750134167371 40.01091959635417 0.9856681676256335 40.87377289643159C1.0575859287901184 41.1614739099451 1.0935460580746763 41.449174923458614 1.2014214511190877 41.70091331028294C1.6688831525812924 42.95960524440456 3.5387224662162167 43.21109389076577 4.689401650038711 43.1032060106982C4.797264556059966 43.1032060106982 5.156865848905547 43.390907024211714 5.192828475594736 43.53475753096847C5.33665400830518 44.110159557995495 6.055831619950029 44.397860571509014 6.6671213515273084 44.4338231981982C7.925663441371059 44.50574845157658 9.220168157903997 44.50574845157658 10.442772595104872 44.46978582488739C12.959881748838683 44.397860571509014 16.447856952949046 40.76613475682714 18.821140573972407 42.38420321737753C18.857078226615286 42.38420321737753 18.857078226615286 42.42016584406672 18.893040853304477 42.42016584406672C18.964966106682855 42.492091097445105 19.03686638601492 42.56401635082348 19.1087916393933 42.63594160420186C20.47522160930462 44.182084811373876 19.86393187772734 47.92169850612331 19.504330584881757 49.791505353498025C19.03686638601492 52.416527361345715 17.994075082259997 54.96962411581504 16.663607739037865 57.270982483460024C14.434174624771256 61.08252143158784 11.449626246216921 64.35487071984093 8.53697814699465 67.69889552100929C4.006186665083051 72.87701428332629 -1.567393623178843 79.349537865991 0.41032857571438625 86.7930523692638C1.3452519786387949 90.28092767718891 3.9342863857509855 93.15768807186092 7.134585550394145 94.88364441247887C8.752728933083475 95.74674745301942 10.514697848483248 96.39407473342483 12.348592017261403 96.7534512598536C15.22527748979448 97.32885328688064 18.245788495038006 97.29289066019145 21.01458608750352 96.53767549971847C23.208056575080942 95.96252321315457 25.509489864864868 94.70383127903294 26.156567404807152 92.54632341814471C26.803894685212555 90.28092767718891 25.473527238175677 88.19534506967906 24.107022346125422 86.4693887290611C23.028268415681307 85.13902128202422 21.841651579215938 83.88032934790259 21.050548714192708 82.40611139410895C19.68411874428139 79.92493989301802 19.43243030554969 76.83240373821087 20.439258982615428 74.171419103674C20.439258982615428 74.13570621744792 20.47522160930462 74.09974359075872 20.47522160930462 74.06378096406954C20.583084515325872 73.77607995055602 20.72693502208263 73.45241631035333 20.870760554793076 73.16471529683982C21.3741873803491 72.1937243762317 22.057402365304757 71.2949084494651 22.848480256281672 70.57565591568131C22.59676684350366 70.79143167581644 20.834797928103885 69.02951270850929 20.61904714201506 68.81373694837416C19.75604399765977 67.9865965345228 19.00090375932573 67.051817981067 18.533464534505207 65.93697655370214C17.994075082259997 64.60660910666526 17.88621217623874 62.05351235219595 19.36050505217131 61.22637193834459C20.65500976870425 60.50736914502393 22.776579976949606 62.12543760557432 23.6395831213049 62.95257801942568C23.99915944010417 63.27599191916526 24.28683547957137 63.63561818605715 24.538548892349382 63.995244452949045C25.473527238175677 65.50542503343186 25.941041385135136 67.30355636789133 25.977004011824327 68.81373694837416C26.12060477811796 68.77777432168496 26.22849265818553 68.74181169499577 26.372343164942286 68.70584906830658C27.343334085550392 68.45411068148226 28.386000519073765 68.41814805479308 29.428916693060245 68.49007330817146C29.788542959952142 68.52603593486064 30.148169226844033 68.56199856154984 30.507545753272804 68.63392381492821C30.72332151340794 68.6698864416174 30.939097273543076 68.70584906830658 31.11891040698902 68.74181169499577C31.406611420502536 68.81373694837416 31.694312434016048 68.88566220175254 31.982013447529564 68.95758745513092C32.23375183435388 69.02951270850929 32.48549022117821 69.10143796188767 32.70101624085022 69.20932584195523C32.772941494228604 68.92162482844172 32.84486674760698 68.63392381492821 32.95275462767455 68.3462228014147C33.24045564118806 67.51908238756336 33.67200716145833 66.65622908748593 34.06759605503942 66.0448644337697C35.397963502076294 63.85139394619228 37.12391984269426 62.12543760557432 38.70627541701858 61.98158709881757C39.10186431059966 61.94562447212838 39.497203463717625 62.01754972550676 39.85682973060951 62.1973628589527C40.935708531285194 62.73680225929054 41.2593721714879 63.77946869281391 41.11552166473114 64.93027274686796C40.935708531285194 66.33256544728322 40.28838125087979 67.62697026763091 39.3176400707348 68.63392381492821C38.20279864336993 69.78447812851914 36.83646856964386 70.21602964878942 35.397963502076294 70.79143167581644C35.29007562200872 70.82739430250562 35.18218774194116 70.86335692919482 35.11026248856278 70.899319555884C35.54181400883305 71.40279632953266 35.901440275724944 71.97794861609657 36.22510391592764 72.58931326981278C37.339695602829394 74.71085850401182 37.80720974978885 77.26395525848115 37.41162085620777 79.63723887950451C37.3037329761402 80.24860353322072 37.15988246938345 80.85996818693694 36.908393823022244 81.43512047350085C36.69261806288711 82.01052250052787 36.44087967606278 82.54996190086571 36.08125340917089 83.05343867451437C35.54181400883305 83.88032934790259 34.85877384220158 84.56361925499718 34.17548393510698 85.28262204831785C33.74393241483671 85.71417356858812 33.276418267877254 86.14572508885838 32.84486674760698 86.61323923581784C32.5214528478674 86.93690287602055 32.1977892076647 87.29652914291243 31.946050820840373 87.65590566934122C31.586424553948483 88.12341981630068 31.262760913745776 88.66285921663851 31.011022526921455 89.20229861697635C30.507545753272804 90.3168903038781 30.148169226844033 91.79135799813486 30.507545753272804 92.97787493841498C30.61543363334037 93.33750120530686 30.795246766786317 93.66116484550957 31.046985153610642 93.87694060564472C31.622387180637666 94.38016763883024 32.5214528478674 94.59594339896537 33.4562314013232 94.63190602565456C34.53511020199887 94.66786865234376 35.68566451558981 94.524018145587 36.47684230275197 94.41613026551943C37.98702288323479 94.20060424584742 39.42527821033925 93.84097797895552 40.86378327790681 93.37346383199606C41.36726005155546 93.1936506985501 41.906449711430184 93.01383756510417 42.40992648507883 92.79806180496902C45.89805153346706 91.39576910455378 49.134188454567855 89.20229861697635 51.36362156883446 86.18168771554757C52.98169002938485 84.02417985465935 54.06056883006053 81.50704572687923 54.67193348377674 78.84606109234234C55.21112314365147 76.65259060476491 55.462861530475784 74.31526961043075 55.426898903786594 72.01391124278575ZM21.30226212697072 26.454507777308557C20.47522160930462 27.85680047772382 19.43240533150338 29.223380291913006 17.598536136771536 28.863754025021116C16.95128377850507 28.719903518264356 16.375931699570664 28.360277251372466 16.088280634149775 27.784875224345438C16.088280634149775 27.784875224345438 16.088280634149775 27.74891259765625 16.052318007460585 27.74891259765625C15.405065649194116 26.41854515061937 16.771495619105433 25.088177703582488 18.101962962327562 25.12414033027168C18.533464534505207 25.088177703582488 21.805688952526747 25.591404736768016 21.30226212697072 26.454507777308557Z"
          fill="#FF9EAA"></path>
</svg>