<svg xmlns="http://www.w3.org/2000/svg" viewBox="0 0 1279.86328125 445.671875" fill="none">
    <path d="M0.916896896790775 37.8666713034731C8.07581353567391 21.494391585123232 28.73526852320805 14.044574215951828 44.011115222482765 7.6090897535089095C64.75526030357382 -1.1301050668273749 87.02222265555045 1.190818352029795 109.11086594720966 1.190818352029795C158.21507607883575 1.190818352029795 208.91705249513117 13.832241597085423 253.98089193874236 33.282175359425366C295.56957252305693 51.233037165338466 330.15842778334303 77.78859583813687 363.0924454915831 108.46772548030646C385.4717167632969 129.3159282135622 409.1964030530869 148.57530353535213 431.85759263352884 168.98298026098564C447.9521484375 183.4744981371161 466.8750554038324 195.58621292420307 486.87291917336364 203.82510359537295C517.8128805515759 216.57239518742165 553.1008015367568 228.37079100862957 586.8141056268468 230.41435494409248C625.0472707316663 232.7338779394811 662.9458010960444 236.8342995192738 701.4265042280399 236.8342995192738C755.4195903963891 236.8342995192738 762.9259518686201 262.90830504846434 862.800669777769 233.1647774682687C907.4102311011371 219.8809242821286 981.0802984111972 223.99693158955833 981.0802984111972 223.99693158955833C981.0802984111972 223.99693158955833 1091.7939730843705 217.4708665453192 1122.2824067648637 172.6506686969746C1135.0810395773638 153.83456980533106 1136.3920743138879 137.82321428271624 1131.4504818454511 118.55375407833765C1122.1884339952878 82.42603741577499 1047.805548847712 99.57721387278384 1036.0933329322618 108.46772548030646C1021.1791667949162 119.79029820483187 1013.4160992204289 130.3196032330095 1010.420430687847 148.81138146867724C1007.5003987746798 166.82779501141655 1015.3872353627553 180.5810536416827 1021.4244128033218 194.6561117072775C1056.8658990461026 277.29072283113584 1235.0566063123993 240.02708166608838 1270.8189751830005 290.01371902422096C1305.4284586122178 338.3867751681702 1215.3429528703662 454.61733902108705 1262.5677076104719 387.20448295352793C1270.6012333998365 375.73522102771307 1153.2521643870882 334.075487861524 1164.460136173106 345.0267535452856C1181.8634346948313 362.03582483854535 1171.278892014293 370.5552586071812 1174.5450187617523 392.70532800188033"
          stroke="#9CDBC7" stroke-width="2" stroke-linecap="round" stroke-dasharray="15 15"></path>
</svg>