<svg xmlns="http://www.w3.org/2000/svg" viewBox="0 0 1266.236328125 541" fill="none">
    <path d="M1169.2473753393385 0.9999892028627838C1189.639655158718 26.217466923355747 1201.2145301818546 48.934971636691756 1218.246846279615 81.99911463474827C1232.9391876426766 110.5273066086192 1244.19156614789 129.53635136313855 1251.246489974087 156.99830484945707C1257.2114255691633 180.22005411833663 1264.246349611303 229.99751665844028 1264.246349611303 229.99751665844028C1264.246349611303 229.99751665844028 1267.8388108225877 272.2720602094644 1261.2463820027147 297.9967824531096C1248.4740199091498 347.8287444047692 1218.1943468464647 379.54840191957675 1180.2472565708292 401.9956595508391C1154.440035217948 417.2604947325395 1125.870343692158 423.0779319201937 1089.2482391103158 423.99542201382036C1049.9561633568298 424.9804113786402 1010.1165935147767 418.080485878887 974.2469808080887 401.9956595508391C888.1204107385241 363.3760765362784 891.3403759717423 356.34615244015305 855.2482656674174 322.9965125246792C827.1985685271162 297.0767923864758 794.4989215935033 275.02453049034426 768.2492050183552 246.9973331071076C758.306812368892 236.37869775920842 746.8819357261846 226.1468082355164 735.2495613238833 216.9976570212241C722.4421996082182 206.92326579698297 713.9847909250061 193.19541402008267 701.2499284265486 182.99802412388945C685.8600945944903 170.67190721210207 651.2504682834095 156.99830484945707 651.2504682834095 156.99830484945707C651.2504682834095 156.99830484945707 649.1329911463474 129.53935133074717 633.2506626318793 96.99895267769003C566.5963823150604 -39.573072719490376 66.69052992542262 -0.22669730229169238 140.25723560703048 133.99855318361304C195.16839271733096 234.18622143193176 152.72310100991794 399.56068584186824 34.25838010357539 384.99584310217176C5.768062720762895 381.4933809191449 1.756801031373396 352.4061949808737 3.258714814829097 356.9961454220138C-27.23295595886291 217.89664731459774 249.2540587406682 375.7109433535908 249.2560587190739 429.99535723099706C249.25855869208107 499.0421117156651 352.00869927273567 522.2768608441819 396.2557215264067 539.9941695459032"
          stroke="#9CDBC7" stroke-width="2" stroke-linecap="round" stroke-dasharray="15 15"></path>
</svg>