<svg xmlns="http://www.w3.org/2000/svg" viewBox="0 0 1440 415.654296875" fill="none">
    <path d="M1.362306290398865 233.58738767144885C114.4728488097115 233.58738767144885 251.8989752483052 181.61480687371906 271.57723474696513 55.66758946870566C275.7635188396658 28.880819801355823 267.9607756582059 11.432959798202742 241.05867885858424 2.7859221188711962C215.2076935204162 -5.523465867885859 183.949954280309 19.914226075989276 172.6097556361343 40.59378842818855C155.34950654264543 72.06810657417626 161.86072205580956 120.28710704713856 187.1891029481318 145.61548793946082C223.22270219139207 181.6490871827211 291.482516159546 185.9300394135267 337.1842976509538 172.42700299542804C380.11414157338794 159.74306164275578 410.5259971622261 138.00503231909192 441.58940564401706 106.94275894687055C468.64133690682644 79.89105470597508 498.25180513952387 63.865123758473906 535.4902096799622 54.555409112407375C558.1901308529087 48.8805423301277 580.7402175626675 46.771508749802926 604.0644489988964 46.771508749802926C612.9591675863156 46.771508749802926 621.856156392874 46.771508749802926 630.7508749802932 46.771508749802926C643.298376162699 46.771508749802926 652.9150244363866 51.69470597509065 664.8541068894845 54.67913605549425C681.4403279205424 58.826145357086546 698.1831940722055 60.54333911398392 717.2394135267224 70.12343685953019C725.4984707551631 74.2749865994009 730.3136055494246 78.65764464764307 737.5033895632981 82.355377581586C751.7649061958064 89.69000157654106 761.458741920227 95.69132587103894 778.0290714173104 101.13576541068895C811.4807504335488 112.12566924168375 834.7187135424878 109.04316569446634 863.4052025855273 109.04316569446634C885.9008040359452 109.04316569446634 909.8198328866467 111.30112565032319 931.9794419044615 106.81925902569762C957.789563298124 101.59911713700141 982.0650165536812 89.6990824530979 1007.718492826738 83.59083083714332C1040.8636922591832 75.69909506542646 1073.4072836197383 71.23539019391454 1107.5513794734352 71.23539019391454C1128.2466971464607 71.23539019391454 1148.8897997792842 70.32344316569446 1168.4636291975405 78.40156392874034C1196.9162856692417 90.14381838246887 1217.6887907930002 116.0436134321299 1235.678007252089 139.68499448210625C1245.9507488570077 153.18780387829102 1255.935172631247 164.04467286772822 1268.1716537915813 175.88658994166798C1288.4061169793472 195.46745703925586 1311.7303484155761 202.33214567239477 1337.4859845498975 211.34695885227808C1365.3256818540121 221.0907393977613 1454.0344947185872 234.002837773924 1436.3245152136215 376.13671764149456"
          stroke="#9CDBC7" stroke-width="3" stroke-linecap="round" stroke-dasharray="15 15"></path>
</svg>